<?xml version="1.0" encoding="utf-8"?>
<!-- Generator: Adobe Illustrator 15.0.0, SVG Export Plug-In . SVG Version: 6.00 Build 0)  -->
<!DOCTYPE svg PUBLIC "-//W3C//DTD SVG 1.1//EN" "http://www.w3.org/Graphics/SVG/1.1/DTD/svg11.dtd">
<svg version="1.1" id="Layer_1" xmlns="http://www.w3.org/2000/svg" xmlns:xlink="http://www.w3.org/1999/xlink" x="0px" y="0px"
	 width="5250px" height="800px" viewBox="413.152 1518.63 5250 800" enable-background="new 413.152 1518.63 5250 800"
	 xml:space="preserve">
<g>
	<path fill="#EFEEEE" d="M785.421,2069.565l70-505h239v712h-150v-608h-2l-96,608h-146l-96-608h-2v608h-133v-712h244l70,505H785.421z
		"/>
	<path fill="#EFEEEE" d="M1402.413,2276.565l-19-175h-90l-27,175h-140l121-712h228l92,712H1402.413z M1371.413,1993.565l-29-317h-2
		l-29,317H1371.413z"/>
	<path fill="#EFEEEE" d="M1801.412,1672.565v604h-166v-604h-116v-108h398v108H1801.412z"/>
	<path fill="#EFEEEE" d="M2227.407,1672.565v604h-166v-604h-116v-108h398v108H2227.407z"/>
	<path fill="#EFEEEE" d="M2799.402,1704.565v115h-166v-100c0-18.656-3.344-32.5-10-41.5c-6.672-9-18-13.5-34-13.5s-27.344,4-34,12
		c-6.672,8-10,22-10,42c0,22,8.156,42.844,24.5,62.5c16.328,19.672,42.156,42.5,77.5,68.5c55.328,41.344,94.5,80.844,117.5,118.5
		c23,37.672,34.5,79.844,34.5,126.5c0,130.672-70.344,196-211,196c-67.344,0-119-13.672-155-41s-54-65.656-54-115v-135h166v126
		c0,18,3.156,31,9.5,39c6.328,8,17.828,12,34.5,12c15.328,0,26.5-4.328,33.5-13c7-8.656,10.5-22.328,10.5-41c0-28-7.844-54-23.5-78
		c-15.672-24-40.5-47.656-74.5-71c-43.344-30-76.344-58.656-99-86c-22.672-27.328-37.844-53.328-45.5-78
		c-7.672-24.656-11.5-51.656-11.5-81c0-58.656,17.828-103,53.5-133c35.656-30,88.828-45,159.5-45c67.328,0,118.656,13.5,154,40.5
		C2781.73,1618.065,2799.402,1655.909,2799.402,1704.565z"/>
	<path fill="#EFEEEE" d="M3052.391,2176.565c15.328,0,26.656-5.5,34-16.5c7.328-11,11-31.828,11-62.5v-533h166v498
		c0,51.344-6.344,93.5-19,126.5c-12.672,33-34.344,58.172-65,75.5c-30.672,17.328-73,26-127,26c-70.672,0-123.172-17-157.5-51
		c-34.344-34-51.499-91-51.499-171v-504h165.999v534c0,29.344,3.156,49.672,9.5,61
		C3025.219,2170.909,3036.391,2176.565,3052.391,2176.565z"/>
	<path fill="#EFEEEE" d="M3622.381,2069.565l70-505h239v712h-150v-608h-2l-96,608h-146l-96-608h-2v608h-133v-712h244l70,505
		H3622.381z"/>
	<path fill="#EFEEEE" d="M4391.373,1730.565c0,46.672-10.672,83.672-32,111c-21.344,27.344-53,44.344-95,51v2
		c45.328,1.344,77.828,12.672,97.5,34c19.656,21.344,29.5,53.344,29.5,96v156c0,36,8.328,68,25,96h-167c-16-23.328-24-55.328-24-96
		v-155c0-21.328-5.672-39-17-53c-11.344-14-26.344-21-45-21h-25v325h-166v-712h196c55.328,0,99.156,5.5,131.5,16.5
		c32.328,11,55.656,28.5,70,52.5C4384.201,1657.565,4391.373,1689.909,4391.373,1730.565z M4225.373,1757.565
		c0-26-2.844-45.328-8.5-58c-5.672-12.656-14.5-21.328-26.5-26c-12-4.656-29.344-7-52-7v183c24.656,0,43.156-2.656,55.5-8
		c12.328-5.328,20.656-14.328,25-27C4223.201,1801.909,4225.373,1782.909,4225.373,1757.565z"/>
	<path fill="#EFEEEE" d="M4703.361,2276.565l-19-175h-90l-27,175h-140l121-712h228l92,712H4703.361z M4672.361,1993.565l-29-317h-2
		l-29,317H4672.361z"/>
	<path fill="#EFEEEE" d="M5246.352,2168.565v108h-346v-712h166v604H5246.352z"/>
	<path fill="#EFEEEE" d="M5616.346,2168.565v108h-346v-712h166v604H5616.346z"/>
</g>
</svg>
